<svg width="22" height="18" viewBox="0 0 22 18" fill="none" xmlns="http://www.w3.org/2000/svg">
<g clip-path="url(#clip0_61_4513)">
<path d="M1.62029 8.2014C1.62029 8.2014 10.8669 4.41112 14.0714 3.07029C15.2993 2.53845 19.4696 0.823087 19.4696 0.823087C19.4696 0.823087 21.3938 0.0740201 21.2366 1.89425C21.1842 2.64332 20.7574 5.26505 20.3306 8.09653C19.6867 12.104 18.9979 16.4936 18.9979 16.4936C18.9979 16.4936 18.8931 17.722 17.9797 17.9393C17.0737 18.1565 15.5763 17.1902 15.3068 16.9805C15.0896 16.8232 11.3012 14.4112 9.90854 13.2351C9.53419 12.913 9.10742 12.2763 9.96095 11.5273C11.8851 9.75945 14.1837 7.57218 15.5688 6.17892C16.2127 5.53472 16.8491 4.04407 14.1762 5.85682C10.3802 8.47855 6.64416 10.9355 6.64416 10.9355C6.64416 10.9355 5.79062 11.4673 4.18838 10.9879C2.58613 10.5085 0.714347 9.86432 0.714347 9.86432C0.714347 9.86432 -0.565952 9.06282 1.62029 8.20889V8.2014Z" fill="#EE0000"/>
</g>
<defs>
<clipPath id="clip0_61_4513">
<rect width="20.9135" height="17.2885" fill="white" transform="translate(0.335938 0.672852)"/>
</clipPath>
</defs>
</svg>
