<svg width="18" height="18" viewBox="0 0 18 18" fill="none" xmlns="http://www.w3.org/2000/svg">
<g clip-path="url(#clip0_61_4508)">
<path d="M0.723633 17.9613L1.93954 13.5228C1.1889 12.2192 0.791872 10.748 0.798076 9.23949C0.798076 4.51542 4.63811 0.672852 9.35905 0.672852C11.6482 0.672852 13.8008 1.56676 15.4138 3.18697C17.0329 4.80718 17.92 6.96126 17.92 9.24569C17.92 13.9698 14.0738 17.8123 9.35905 17.8123C7.92602 17.8123 6.5178 17.4523 5.26467 16.7694L0.723633 17.9613Z" fill="#EE0000"/>
<path fill-rule="evenodd" clip-rule="evenodd" d="M7.14426 5.52746C6.97676 5.1612 6.80306 5.14879 6.64797 5.14258C6.51769 5.14258 6.3688 5.14258 6.22612 5.14258C6.08344 5.14258 5.83529 5.19845 5.63678 5.42193C5.43206 5.6454 4.86133 6.17927 4.86133 7.27182C4.86133 8.36438 5.65539 9.41969 5.76705 9.56867C5.87872 9.71766 7.29935 12.0269 9.55125 12.9146C11.4247 13.6533 11.8032 13.5044 12.2126 13.4671C12.622 13.4299 13.5216 12.9332 13.7077 12.4118C13.8938 11.8966 13.8938 11.4496 13.8379 11.3565C13.7821 11.2634 13.6332 11.2075 13.4161 11.0958C13.199 10.984 12.1071 10.4502 11.9024 10.3757C11.6977 10.3012 11.5488 10.2639 11.4061 10.4874C11.2572 10.7109 10.8354 11.2075 10.7051 11.3565C10.5749 11.5055 10.4446 11.5241 10.2274 11.4124C10.0041 11.3006 9.2907 11.0647 8.44701 10.3136C7.78943 9.72387 7.34277 8.99756 7.2125 8.78029C7.08222 8.55682 7.20009 8.43887 7.31175 8.32713C7.41101 8.22781 7.53508 8.06641 7.64675 7.93605C7.75841 7.80568 7.79563 7.71257 7.87008 7.56358C7.94452 7.4146 7.9073 7.28424 7.85147 7.1725C7.79563 7.06076 7.36759 5.962 7.16907 5.52746H7.14426Z" fill="white"/>
</g>
<defs>
<clipPath id="clip0_61_4508">
<rect width="17.2019" height="17.2885" fill="white" transform="translate(0.720703 0.672852)"/>
</clipPath>
</defs>
</svg>
