<svg width="19" height="18" viewBox="0 0 19 18" fill="none" xmlns="http://www.w3.org/2000/svg">
<g clip-path="url(#clip0_61_4519)">
<path d="M1.16662 6.40942H4.75554V17.9613H1.16662V6.40942ZM2.96436 0.672852C4.11255 0.672852 5.04423 1.60488 5.04423 2.75351C5.04423 3.90213 4.11255 4.83416 2.96436 4.83416C1.81617 4.83416 0.87793 3.90213 0.87793 2.75351C0.87793 1.60488 1.80961 0.672852 2.96436 0.672852Z" fill="#EE0000"/>
<path d="M7.00586 6.40919H10.4504V7.99101H10.4964C10.9753 7.08523 12.1498 6.12695 13.895 6.12695C17.5299 6.12695 18.1991 8.5161 18.1991 11.6272V17.9611H14.6102V12.3492C14.6102 11.0103 14.5839 9.28403 12.7468 9.28403C10.9097 9.28403 10.5948 10.7411 10.5948 12.2508V17.9611H7.00586V6.40919Z" fill="#EE0000"/>
</g>
<defs>
<clipPath id="clip0_61_4519">
<rect width="17.3269" height="17.2885" fill="white" transform="translate(0.875 0.672852)"/>
</clipPath>
</defs>
</svg>
