<svg width="22" height="18" viewBox="0 0 22 18" fill="none" xmlns="http://www.w3.org/2000/svg">
<g clip-path="url(#clip0_61_4496)">
<path d="M21.8192 2.74388C21.1501 3.04617 20.4167 3.22626 19.6962 3.34846C20.0372 3.29057 20.539 2.67313 20.7384 2.42229C21.0472 2.04282 21.2981 1.60546 21.4461 1.13595C21.4654 1.09736 21.4783 1.05234 21.4461 1.02661C21.4011 1.00731 21.3689 1.02018 21.3303 1.03304C20.5261 1.46397 19.6962 1.77269 18.8084 1.9978C18.7376 2.01709 18.6797 1.9978 18.6347 1.95278C18.5639 1.86916 18.4931 1.79198 18.4159 1.72767C18.0428 1.41251 17.6439 1.16168 17.1936 0.981587C16.6017 0.743614 15.9583 0.640706 15.3214 0.679297C14.7038 0.717887 14.0926 0.891543 13.5458 1.18097C12.9925 1.4704 12.5036 1.86916 12.1111 2.35154C11.7058 2.85322 11.4099 3.4385 11.2555 4.06238C11.1075 4.66696 11.1204 5.25868 11.2104 5.86969C11.2233 5.9726 11.2104 5.98547 11.1268 5.9726C7.66559 5.45806 4.8027 4.22317 2.47378 1.57331C2.37085 1.45753 2.31938 1.45753 2.23575 1.57974C1.21282 3.10405 1.7082 5.56097 2.98203 6.7637C3.1493 6.9245 3.323 7.08529 3.51601 7.23322C3.44524 7.24608 2.60245 7.15604 1.8433 6.7637C1.74037 6.69939 1.6889 6.73798 1.68247 6.85375C1.67603 7.02097 1.68247 7.1689 1.7082 7.34899C1.9012 8.89903 2.97559 10.3269 4.44243 10.8864C4.61613 10.9572 4.80913 11.0215 4.9957 11.0537C4.66116 11.1244 4.31376 11.1823 3.35517 11.1051C3.23293 11.0794 3.1879 11.1437 3.23293 11.2595C3.95348 13.2211 5.51038 13.8064 6.67484 14.1409C6.82924 14.1666 6.98365 14.1666 7.14448 14.2052C7.13805 14.2181 7.12518 14.2181 7.11875 14.2309C6.73274 14.8226 5.39458 15.26 4.77053 15.4787C3.63824 15.8775 2.40302 16.0511 1.19996 15.9353C1.00695 15.9096 0.968352 15.9096 0.916884 15.9353C0.865416 15.9675 0.91045 16.0125 0.974785 16.064C1.21926 16.2248 1.46373 16.3663 1.72107 16.5078C2.48022 16.913 3.27797 17.2345 4.10788 17.4597C8.39901 18.6431 13.2241 17.7748 16.4473 14.5782C18.9756 12.0634 19.8635 8.60318 19.8635 5.13648C19.8635 5.00141 20.0243 4.92423 20.1208 4.85348C20.777 4.35824 21.311 3.76652 21.7999 3.11049C21.9093 2.96256 21.9093 2.82749 21.9093 2.77604V2.75674C21.9093 2.69886 21.9093 2.71815 21.8257 2.75674L21.8192 2.74388Z" fill="#EE0000"/>
</g>
<defs>
<clipPath id="clip0_61_4496">
<rect width="21.0192" height="17.2885" fill="white" transform="translate(0.893555 0.672852)"/>
</clipPath>
</defs>
</svg>
