<svg width="16" height="18" viewBox="0 0 16 18" fill="none" xmlns="http://www.w3.org/2000/svg">
<g clip-path="url(#clip0_61_4516)">
<path d="M15.4494 7.67029C15.3076 7.6832 15.1657 7.68965 15.0239 7.68965C13.4701 7.68965 12.0195 6.90249 11.1684 5.6056V12.7094C11.1684 15.6064 8.82162 17.9615 5.92034 17.9615C3.01907 17.9615 0.678711 15.6129 0.678711 12.7094C0.678711 9.80595 3.02552 7.46382 5.92679 7.46382C6.03639 7.46382 6.146 7.47673 6.24915 7.48318V10.0705C6.13955 10.0576 6.03639 10.0382 5.92679 10.0382C4.45037 10.0382 3.25117 11.2383 3.25117 12.7159C3.25117 14.1934 4.45037 15.3935 5.92679 15.3935C7.40322 15.3935 8.71201 14.2257 8.71201 12.7481L8.7378 0.682617H11.2136C11.4457 2.90216 13.238 4.63778 15.4559 4.79909V7.67674" fill="#EE0000"/>
</g>
<defs>
<clipPath id="clip0_61_4516">
<rect width="14.7885" height="17.2788" fill="white" transform="translate(0.672852 0.682617)"/>
</clipPath>
</defs>
</svg>
