<svg width="18" height="18" viewBox="0 0 18 18" fill="none" xmlns="http://www.w3.org/2000/svg">
<g clip-path="url(#clip0_61_4502)">
<path d="M13.2353 3.74268C12.6778 3.74268 12.2188 4.19521 12.2188 4.75923C12.2188 5.32326 12.6713 5.77579 13.2353 5.77579C13.7993 5.77579 14.2519 5.32326 14.2519 4.75923C14.2519 4.19521 13.7993 3.74268 13.2353 3.74268Z" fill="#EE0000"/>
<path d="M8.72294 5.04736C6.37502 5.04736 4.45996 6.96242 4.45996 9.31034C4.45996 11.6583 6.37502 13.5733 8.72294 13.5733C11.0709 13.5733 12.9859 11.6583 12.9859 9.31034C12.9859 6.96242 11.0709 5.04736 8.72294 5.04736ZM8.72294 12.0386C7.2145 12.0386 5.99463 10.8122 5.99463 9.31034C5.99463 7.80846 7.22106 6.58204 8.72294 6.58204C10.2248 6.58204 11.4512 7.80846 11.4512 9.31034C11.4512 10.8122 10.2248 12.0386 8.72294 12.0386Z" fill="#EE0000"/>
<path d="M12.1069 17.9615H5.20083C2.3348 17.9615 0 15.6267 0 12.7607V5.85464C0 2.98861 2.3348 0.653809 5.20083 0.653809H12.1134C14.9795 0.653809 17.3143 2.98861 17.3143 5.85464V12.7672C17.3143 15.6333 14.9795 17.9681 12.1134 17.9681L12.1069 17.9615ZM5.20083 2.2803C3.2333 2.2803 1.63305 3.88056 1.63305 5.84808V12.7607C1.63305 14.7282 3.2333 16.3285 5.20083 16.3285H12.1134C14.0809 16.3285 15.6812 14.7282 15.6812 12.7607V5.85464C15.6812 3.88711 14.0809 2.28686 12.1134 2.28686H5.20083V2.2803Z" fill="#EE0000"/>
</g>
<defs>
<clipPath id="clip0_61_4502">
<rect width="17.3077" height="17.3077" fill="white" transform="translate(0 0.653809)"/>
</clipPath>
</defs>
</svg>
