<svg width="26" height="18" viewBox="0 0 26 18" fill="none" xmlns="http://www.w3.org/2000/svg">
<g clip-path="url(#clip0_61_4493)">
<path d="M25.4704 6.09502C25.4704 3.10079 23.0417 0.672852 20.0466 0.672852H6.18449C3.18938 0.672852 0.760742 3.10079 0.760742 6.09502V12.5456C0.760742 15.5399 3.18938 17.9678 6.18449 17.9678H20.0466C23.0417 17.9678 25.4704 15.5399 25.4704 12.5456V6.09502ZM17.3185 9.80527L11.1004 12.8776C10.8595 13.0078 10.026 12.8321 10.026 12.5587V6.24473C10.026 5.96484 10.8595 5.78909 11.1069 5.92578L17.058 9.16086C17.3055 9.30406 17.5724 9.66207 17.3185 9.79876V9.80527Z" fill="#EE0000"/>
</g>
<defs>
<clipPath id="clip0_61_4493">
<rect width="24.7308" height="17.2885" fill="white" transform="translate(0.75 0.672852)"/>
</clipPath>
</defs>
</svg>
