<svg width="16" height="18" viewBox="0 0 16 18" fill="none" xmlns="http://www.w3.org/2000/svg">
<g clip-path="url(#clip0_61_4524)">
<path d="M12.4173 2.7181C11.468 2.7181 10.6176 3.19008 10.0759 3.92427C9.60999 2.048 8.0316 0.672852 6.15034 0.672852C3.90798 0.672852 2.08496 2.64235 2.08496 5.078C2.08496 7.51365 3.90215 9.48315 6.15034 9.48315C7.68797 9.48315 12.4173 9.02865 12.4173 9.02865C14.2869 8.85967 15.3994 7.61854 15.3994 5.87629C15.3994 4.13404 14.0656 2.72393 12.4173 2.72393V2.7181ZM6.83761 7.49617C5.71934 7.49617 4.81657 6.41819 4.81657 5.09548C4.81657 3.77277 5.71934 2.69479 6.83761 2.69479C7.95588 2.69479 8.85866 3.77277 8.85866 5.09548C8.85866 6.41819 7.95588 7.49617 6.83761 7.49617ZM12.9182 7.45538C12.1727 7.45538 11.567 6.73867 11.567 5.84715C11.567 4.95564 12.1727 4.23892 12.9182 4.23892C13.6637 4.23892 14.2695 4.95564 14.2695 5.84715C14.2695 6.73867 13.6637 7.45538 12.9182 7.45538Z" fill="#EE0000"/>
<path d="M8.00805 14.0338C8.00805 13.3871 8.01388 13.4919 7.84497 13.3171C7.67606 13.1423 7.22177 12.7461 6.25493 11.7322C5.49194 10.9398 5.28809 10.9514 3.75047 10.6426C3.75047 10.6426 2.54483 10.4503 1.9158 10.3804C1.28678 10.3104 0.832478 10.6659 0.715992 11.1612C0.599505 11.6565 0.587857 13.1831 0.622803 14.634C0.651924 16.0849 0.733465 16.5744 1.71195 17.0231C2.69044 17.4717 3.24375 17.565 4.22224 17.8505C5.20073 18.136 5.63755 17.8213 5.80063 17.5999C5.96371 17.3843 7.51881 15.3799 7.79838 15.0128C8.07794 14.6398 8.01388 14.6806 8.01388 14.0338H8.00805ZM4.92116 15.8344C4.86291 16.4229 4.83379 16.4753 4.3562 16.452C3.9019 16.4287 2.46911 16.0558 2.10218 15.8052C1.72942 15.5547 1.7702 15.4032 1.7469 15.0244C1.71778 14.6457 1.64788 13.02 1.7469 12.076C1.78767 11.6798 2.00317 11.7089 2.24197 11.7206C2.90594 11.7555 4.00674 12.0003 4.37367 12.1168C4.70566 12.2217 4.86874 12.245 4.92698 12.8335C4.9794 13.4278 4.99105 15.1817 4.92698 15.8402L4.92116 15.8344Z" fill="#EE0000"/>
<path d="M10.6353 9.79204C11.8875 9.69299 12.202 9.66968 13.3377 9.76874C14.6133 9.87945 14.8521 9.82701 14.8521 10.4913V11.2371C14.8521 11.3537 14.8754 11.4644 14.5958 11.5168C12.8601 11.8315 12.6796 11.8664 12.0389 11.9888C11.3516 12.1228 11.1128 12.1461 11.1128 13.0376V14.4769C11.1128 15.0829 11.3866 15.1178 11.7943 15.0654C12.1962 15.013 12.534 14.9139 12.7437 14.8673C12.9941 14.809 12.9533 14.844 12.9533 14.4652C12.9533 14.1214 12.965 14.1448 12.6912 14.203C12.3534 14.2788 12.3884 14.2671 12.0447 14.3487C11.8467 14.3953 11.8118 14.3895 11.8118 14.1681V12.9852C11.8118 12.7346 11.8875 12.7638 12.1496 12.7172C12.4117 12.6705 14.258 12.286 14.5667 12.2277C14.8812 12.1694 14.8637 12.1869 14.8637 12.3559V14.8731C14.8637 15.753 14.124 15.9045 13.7746 15.9861C13.4251 16.0735 10.711 16.7144 10.0179 16.8368C9.32478 16.9592 9.02192 17.0291 8.40454 16.8077C7.95606 16.6445 7.68814 16.528 7.57748 16.4755C7.54254 16.4639 7.53671 16.4231 7.55418 16.3939C7.71144 16.19 8.26475 15.4616 8.44531 15.1936C8.66081 14.8848 8.64333 14.9197 8.64333 14.4186V13.3814C8.64333 13.0901 8.52685 12.9852 8.1075 12.5657C7.68814 12.1461 6.49998 10.9516 6.33108 10.771C6.26118 10.6952 6.44756 10.165 7.15231 10.1009C9.10928 9.91441 10.6236 9.78622 10.6236 9.78622L10.6353 9.79204Z" fill="#EE0000"/>
</g>
<defs>
<clipPath id="clip0_61_4524">
<rect width="14.7885" height="17.2885" fill="white" transform="translate(0.605469 0.672852)"/>
</clipPath>
</defs>
</svg>
