<svg width="13" height="14" viewBox="0 0 13 14" fill="none" xmlns="http://www.w3.org/2000/svg">
<g clip-path="url(#clip0_61_4386)">
<path d="M10.1274 3.22644C9.10449 2.20105 7.74219 1.63708 6.29443 1.63708C3.30615 1.63708 0.874512 4.06873 0.874512 7.05701C0.874512 8.0116 1.12354 8.94421 1.59717 9.76697L0.828125 12.5746L3.70166 11.8202C4.49268 12.2523 5.38379 12.4794 6.29199 12.4794H6.29443C9.28027 12.4794 11.7656 10.0477 11.7656 7.05945C11.7656 5.61169 11.1504 4.25183 10.1274 3.22644ZM6.29443 11.5663C5.48389 11.5663 4.69043 11.349 3.99951 10.9388L3.83594 10.8412L2.13184 11.288L2.58594 9.62537L2.47852 9.45447C2.02686 8.7367 1.79004 7.90906 1.79004 7.05701C1.79004 4.5741 3.81152 2.55261 6.29688 2.55261C7.50049 2.55261 8.63086 3.02136 9.48047 3.87341C10.3301 4.72546 10.8525 5.85584 10.8501 7.05945C10.8501 9.5448 8.77734 11.5663 6.29443 11.5663ZM8.76514 8.19226C8.63086 8.1239 7.96436 7.79675 7.83984 7.75281C7.71533 7.70642 7.625 7.68445 7.53467 7.82117C7.44434 7.95789 7.18555 8.26062 7.10498 8.35339C7.02686 8.44373 6.94629 8.45593 6.81201 8.38757C6.01611 7.98962 5.49365 7.67712 4.96875 6.77625C4.82959 6.53699 5.10791 6.55408 5.3667 6.0365C5.41064 5.94617 5.38867 5.86804 5.35449 5.79968C5.32031 5.73132 5.04932 5.06482 4.93701 4.79382C4.82715 4.53015 4.71484 4.56677 4.63184 4.56189C4.55371 4.55701 4.46338 4.55701 4.37305 4.55701C4.28272 4.55701 4.13623 4.59119 4.01172 4.72546C3.88721 4.86218 3.53809 5.18933 3.53809 5.85584C3.53809 6.52234 4.02393 7.16687 4.08984 7.2572C4.1582 7.34754 5.04443 8.71472 6.4043 9.3031C7.26367 9.6742 7.60059 9.70593 8.03027 9.64246C8.2915 9.60339 8.83105 9.31531 8.94336 8.99793C9.05566 8.68054 9.05567 8.40955 9.02149 8.35339C8.98975 8.29236 8.89942 8.25818 8.76514 8.19226Z" fill="white"/>
</g>
<defs>
<clipPath id="clip0_61_4386">
<rect width="12.5" height="12.5" fill="white" transform="translate(0.0478516 0.855713)"/>
</clipPath>
</defs>
</svg>
