<svg width="13" height="13" viewBox="0 0 13 13" fill="none" xmlns="http://www.w3.org/2000/svg">
<g clip-path="url(#clip0_61_4443)">
<path d="M10.523 2.79346C9.5 1.76807 8.1377 1.2041 6.68994 1.2041C3.70166 1.2041 1.27002 3.63574 1.27002 6.62402C1.27002 7.57861 1.51904 8.51123 1.99268 9.33399L1.22363 12.1416L4.09717 11.3872C4.88818 11.8193 5.7793 12.0464 6.6875 12.0464H6.68994C9.67578 12.0464 12.1611 9.61475 12.1611 6.62647C12.1611 5.17871 11.5459 3.81885 10.523 2.79346ZM6.68994 11.1333C5.87939 11.1333 5.08594 10.916 4.39502 10.5059L4.23145 10.4082L2.52734 10.855L2.98145 9.19238L2.87402 9.02149C2.42236 8.30371 2.18555 7.47607 2.18555 6.62402C2.18555 4.14111 4.20703 2.11963 6.69238 2.11963C7.896 2.11963 9.02637 2.58838 9.87598 3.44043C10.7256 4.29248 11.248 5.42285 11.2456 6.62647C11.2456 9.11182 9.17285 11.1333 6.68994 11.1333ZM9.16065 7.75928C9.02637 7.69092 8.35986 7.36377 8.23535 7.31982C8.11084 7.27344 8.02051 7.25146 7.93018 7.38818C7.83984 7.5249 7.58106 7.82764 7.50049 7.92041C7.42236 8.01074 7.3418 8.02295 7.20752 7.95459C6.41162 7.55664 5.88916 7.24414 5.36426 6.34326C5.2251 6.104 5.50342 6.12109 5.76221 5.60352C5.80615 5.51318 5.78418 5.43506 5.75 5.3667C5.71582 5.29834 5.44482 4.63184 5.33252 4.36084C5.22266 4.09717 5.11035 4.13379 5.02734 4.12891C4.94922 4.12402 4.85889 4.12402 4.76855 4.12402C4.67822 4.12402 4.53174 4.1582 4.40723 4.29248C4.28271 4.4292 3.93359 4.75635 3.93359 5.42285C3.93359 6.08936 4.41943 6.73389 4.48535 6.82422C4.55371 6.91455 5.43994 8.28174 6.79981 8.87012C7.65918 9.24121 7.99609 9.27295 8.42578 9.20947C8.68701 9.17041 9.22656 8.88232 9.33887 8.56494C9.45117 8.24756 9.45117 7.97656 9.41699 7.92041C9.38525 7.85938 9.29492 7.8252 9.16065 7.75928Z" fill="white"/>
</g>
<defs>
<clipPath id="clip0_61_4443">
<rect width="12.5" height="12.5" fill="white" transform="translate(0.442383 0.422852)"/>
</clipPath>
</defs>
</svg>
