<svg width="14" height="14" viewBox="0 0 14 14" fill="none" xmlns="http://www.w3.org/2000/svg">
<g clip-path="url(#clip0_61_4376)">
<path d="M11.7825 4.55967C11.7904 4.6707 11.7904 4.78176 11.7904 4.8928C11.7904 8.27952 9.2127 12.1818 4.50139 12.1818C3.04993 12.1818 1.70159 11.7614 0.567383 11.0318C0.773608 11.0555 0.971875 11.0635 1.18604 11.0635C2.38367 11.0635 3.48616 10.659 4.36655 9.96895C3.24028 9.94514 2.29644 9.20752 1.97124 8.19229C2.12988 8.21606 2.2885 8.23193 2.45508 8.23193C2.68508 8.23193 2.91511 8.20019 3.12925 8.1447C1.9554 7.90674 1.07498 6.87566 1.07498 5.63042V5.59871C1.41602 5.78906 1.81262 5.90803 2.23296 5.92388C1.54292 5.46384 1.09084 4.67864 1.09084 3.79031C1.09084 3.31443 1.21772 2.8782 1.43982 2.49749C2.70093 4.05205 4.59656 5.06726 6.72217 5.17832C6.68252 4.98796 6.65872 4.7897 6.65872 4.59141C6.65872 3.17959 7.80085 2.02954 9.22058 2.02954C9.9582 2.02954 10.6244 2.33887 11.0924 2.83855C11.6714 2.72751 12.2266 2.51335 12.7184 2.2199C12.528 2.81477 12.1235 3.31445 11.5921 3.63169C12.1076 3.5762 12.6073 3.4334 13.0673 3.23513C12.7184 3.74272 12.2822 4.1948 11.7825 4.55967Z" fill="white"/>
</g>
<defs>
<clipPath id="clip0_61_4376">
<rect width="12.5" height="12.5" fill="white" transform="translate(0.567383 0.855591)"/>
</clipPath>
</defs>
</svg>
