<svg width="14" height="13" viewBox="0 0 14 13" fill="none" xmlns="http://www.w3.org/2000/svg">
<g clip-path="url(#clip0_61_4433)">
<path d="M12.176 4.12656C12.184 4.2376 12.184 4.34866 12.184 4.45969C12.184 7.84641 9.60625 11.7487 4.89495 11.7487C3.44348 11.7487 2.09514 11.3283 0.960938 10.5987C1.16716 10.6224 1.36543 10.6304 1.57959 10.6304C2.77722 10.6304 3.87971 10.2259 4.76011 9.53584C3.63384 9.51204 2.68999 8.77441 2.36479 7.75918C2.52344 7.78296 2.68206 7.79883 2.84863 7.79883C3.07864 7.79883 3.30867 7.76709 3.5228 7.7116C2.34895 7.47363 1.46853 6.44255 1.46853 5.19731V5.1656C1.80957 5.35596 2.20618 5.47493 2.62651 5.49077C1.93647 5.03074 1.4844 4.24553 1.4844 3.3572C1.4844 2.88132 1.61128 2.44509 1.83337 2.06438C3.09448 3.61895 4.99011 4.63416 7.11572 4.74521C7.07607 4.55486 7.05227 4.35659 7.05227 4.1583C7.05227 2.74648 8.19441 1.59644 9.61414 1.59644C10.3518 1.59644 11.018 1.90576 11.486 2.40544C12.0649 2.29441 12.6201 2.08025 13.1119 1.78679C12.9215 2.38167 12.517 2.88135 11.9856 3.19858C12.5012 3.14309 13.0009 3.00029 13.4609 2.80203C13.112 3.30962 12.6757 3.76169 12.176 4.12656Z" fill="white"/>
</g>
<defs>
<clipPath id="clip0_61_4433">
<rect width="12.5" height="12.5" fill="white" transform="translate(0.960938 0.422852)"/>
</clipPath>
</defs>
</svg>
