<svg width="14" height="14" viewBox="0 0 14 14" fill="none" xmlns="http://www.w3.org/2000/svg">
<g clip-path="url(#clip0_61_4371)">
<path d="M13.1318 7.10596C13.1318 3.76123 10.4219 1.05127 7.07715 1.05127C3.73242 1.05127 1.02246 3.76123 1.02246 7.10596C1.02246 10.1279 3.23657 12.6328 6.1311 13.0874V8.8562H4.59302V7.10596H6.1311V5.77197C6.1311 4.25464 7.03442 3.4165 8.41797 3.4165C9.08057 3.4165 9.77344 3.53467 9.77344 3.53467V5.02393H9.00977C8.25781 5.02393 8.02319 5.49072 8.02319 5.96948V7.10596H9.70239L9.43384 8.8562H8.02319V13.0874C10.9177 12.6328 13.1318 10.1279 13.1318 7.10596Z" fill="white"/>
</g>
<defs>
<clipPath id="clip0_61_4371">
<rect width="12.5" height="12.5" fill="white" transform="translate(0.827148 0.855713)"/>
</clipPath>
</defs>
</svg>
