<svg width="13" height="14" viewBox="0 0 13 14" fill="none" xmlns="http://www.w3.org/2000/svg">
<g clip-path="url(#clip0_61_4356)">
<path d="M6.30859 0.868408C2.96387 0.868408 0.253906 3.57837 0.253906 6.9231C0.253906 10.2678 2.96387 12.9778 6.30859 12.9778C9.65332 12.9778 12.3633 10.2678 12.3633 6.9231C12.3633 3.57837 9.65332 0.868408 6.30859 0.868408ZM6.30859 11.8059C3.61084 11.8059 1.42578 9.62085 1.42578 6.9231C1.42578 4.22534 3.61084 2.04028 6.30859 2.04028C9.00635 2.04028 11.1914 4.22534 11.1914 6.9231C11.1914 9.62085 9.00635 11.8059 6.30859 11.8059ZM7.81738 9.25708L5.74463 7.75073C5.66895 7.69458 5.625 7.60669 5.625 7.51392V3.50513C5.625 3.34399 5.75684 3.21216 5.91797 3.21216H6.69922C6.86035 3.21216 6.99219 3.34399 6.99219 3.50513V6.9646L8.62305 8.15112C8.75488 8.24634 8.78174 8.42944 8.68652 8.56128L8.22754 9.1936C8.13232 9.323 7.94922 9.35229 7.81738 9.25708Z" fill="#E42227"/>
</g>
<defs>
<clipPath id="clip0_61_4356">
<rect width="12.5" height="12.5" fill="white" transform="translate(0.0576172 0.672974)"/>
</clipPath>
</defs>
</svg>
