<svg width="13" height="14" viewBox="0 0 13 14" fill="none" xmlns="http://www.w3.org/2000/svg">
<g clip-path="url(#clip0_61_4381)">
<path d="M6.55762 1.05115C3.21289 1.05115 0.50293 3.76111 0.50293 7.10583C0.50293 10.4506 3.21289 13.1605 6.55762 13.1605C9.90234 13.1605 12.6123 10.4506 12.6123 7.10583C12.6123 3.76111 9.90234 1.05115 6.55762 1.05115ZM9.53125 5.1991L8.5376 9.88171C8.46436 10.2137 8.2666 10.2943 7.99072 10.1381L6.47705 9.02234L5.74707 9.72546C5.6665 9.80603 5.59814 9.87439 5.44189 9.87439L5.54932 8.33386L8.35449 5.79968C8.47656 5.69226 8.32764 5.63123 8.1665 5.73865L4.69971 7.92126L3.20557 7.45496C2.88086 7.35242 2.87354 7.13025 3.27393 6.974L9.11133 4.72302C9.38232 4.62537 9.61914 4.78894 9.53125 5.1991Z" fill="white"/>
</g>
<defs>
<clipPath id="clip0_61_4381">
<rect width="12.5" height="12.5" fill="white" transform="translate(0.307617 0.855591)"/>
</clipPath>
</defs>
</svg>
