<svg width="14" height="13" viewBox="0 0 14 13" fill="none" xmlns="http://www.w3.org/2000/svg">
<g clip-path="url(#clip0_61_4349)">
<path d="M1.66504 5.12964H12.0166C12.1777 5.12964 12.3096 5.26147 12.3096 5.42261V11.7703C12.3096 12.4172 11.7847 12.9421 11.1377 12.9421H2.54395C1.89697 12.9421 1.37207 12.4172 1.37207 11.7703V5.42261C1.37207 5.26147 1.50391 5.12964 1.66504 5.12964ZM12.3096 4.05542V3.17651C12.3096 2.52954 11.7847 2.00464 11.1377 2.00464H9.96582V0.735107C9.96582 0.573975 9.83399 0.442139 9.67285 0.442139H8.69629C8.53516 0.442139 8.40332 0.573975 8.40332 0.735107V2.00464H5.27832V0.735107C5.27832 0.573975 5.14648 0.442139 4.98535 0.442139H4.00879C3.84766 0.442139 3.71582 0.573975 3.71582 0.735107V2.00464H2.54395C1.89697 2.00464 1.37207 2.52954 1.37207 3.17651V4.05542C1.37207 4.21655 1.50391 4.34839 1.66504 4.34839H12.0166C12.1777 4.34839 12.3096 4.21655 12.3096 4.05542Z" fill="#E42227"/>
</g>
<defs>
<clipPath id="clip0_61_4349">
<rect width="12.5" height="12.5" fill="white" transform="translate(0.59082 0.442139)"/>
</clipPath>
</defs>
</svg>
