<svg width="21" height="19" viewBox="0 0 21 19" fill="none" xmlns="http://www.w3.org/2000/svg">
<path d="M0.721154 4.10817C0.315505 4.10817 0 3.79266 0 3.38701V1.58413C0 1.22355 0.315505 0.862976 0.721154 0.862976H19.4712C19.8317 0.862976 20.1923 1.22355 20.1923 1.58413V3.38701C20.1923 3.79266 19.8317 4.10817 19.4712 4.10817H0.721154ZM0.721154 11.3197C0.315505 11.3197 0 11.0042 0 10.5986V8.79567C0 8.43509 0.315505 8.07451 0.721154 8.07451H19.4712C19.8317 8.07451 20.1923 8.43509 20.1923 8.79567V10.5986C20.1923 11.0042 19.8317 11.3197 19.4712 11.3197H0.721154ZM0.721154 18.5312C0.315505 18.5312 0 18.2157 0 17.8101V16.0072C0 15.6466 0.315505 15.2861 0.721154 15.2861H19.4712C19.8317 15.2861 20.1923 15.6466 20.1923 16.0072V17.8101C20.1923 18.2157 19.8317 18.5312 19.4712 18.5312H0.721154Z" fill="#E42227"/>
</svg>
